# xmcd
#
# Track frame offsets:
#	150
#	12210
#	27435
#	36735
#	48060
#	58035
#	65647
#	77085
#	88935
#	102135
#	114585
#	127187
#
# Disc length: 1852
#
# Revision: 1
# Processed by: cddbd v1.5.1PL0 Copyright (c) Steve Scherf et al.
# Submitted via: audiograbber 1.80
# Normalized: r0:TRMNUM
#
DISCID=a5073a0c
DTITLE=Various Artist - Country and Western Festival
DYEAR=1900
DGENRE=
TTITLE0=High Charparral - Orch. Charles Paker
TTITLE1=Wild West Story - Orch. Charles Paker
TTITLE2=Tom Dooley - Colorado Singers and Boy Cliff
TTITLE3=Hillibilly Jamboree - Orch. Charles Paker
TTITLE4=Oh Suzannah - Bill Rider and His Cowboys
TTITLE5=The Virginian - Orch. Charles Paker
TTITLE6=Bonanza - Starlet Studio Band
TTITLE7=O My Darling Caroline - Fred Karman u. d. Starlet Studio Band
TTITLE8=Abends auf der Ranch - Starlet Studio Band
TTITLE9=Shennandoah I Long to hear you - Billy Raider and his Cowboys
TTITLE10=Weit ist die Prärie - Starlet Studio Band
TTITLE11=High Noon - Bingo Hawkins and his Hillibillys
EXTD=
EXTT0=
EXTT1=
EXTT2=
EXTT3=
EXTT4=
EXTT5=
EXTT6=
EXTT7=
EXTT8=
EXTT9=
EXTT10=
EXTT11=
PLAYORDER=
